<svg width="63" height="85" viewBox="0 0 63 85" fill="none" xmlns="http://www.w3.org/2000/svg">
<g clip-path="url(#clip0_1_1038)">
<path d="M62.4925 26.4806L62.3008 66.2814L62.2689 73.9796C62.237 80.0967 56.4234 85.0319 49.2681 84.9999L13.5241 84.8402C6.38486 84.7923 0.603199 79.8092 0.635141 73.6762L0.858742 26.1771C0.874713 21.226 4.70786 17.0415 9.94649 15.652L9.96246 13.0965V11.7869L53.5166 11.9945L53.5006 15.8596C58.7232 17.313 62.5085 21.5135 62.4925 26.4806Z" fill="url(#paint0_linear_1_1038)"/>
<path d="M56.7588 1.77283V2.1242L56.7269 6.27678L56.6949 10.3495V10.8446C56.6949 11.6112 56.0561 12.2341 55.2894 12.2341H54.954L52.8458 12.2182L50.5299 12.2022L48.4217 12.1862L46.1058 12.1702L43.9657 12.1383L41.6498 12.1223L39.5416 12.1064L37.2098 12.0904L35.0855 12.0744L32.7697 12.0584L30.6615 12.0265L28.3456 12.0105L26.2374 11.9946L23.9055 11.9786L21.7813 11.9626L19.4815 11.9466L17.3732 11.9307L15.0574 11.9147L12.9332 11.8987L10.6173 11.8828L8.4931 11.8668H8.1577C7.39107 11.8668 6.76819 11.2279 6.76819 10.4613V10.4453V10.0939L6.83207 1.88463V1.38952C6.83207 0.622886 7.47093 0 8.25353 0H8.58893L13.029 0.0319429L17.4691 0.0638858L19.5933 0.0798572L21.9091 0.0958286L24.0173 0.1118L28.4414 0.159714L30.7573 0.175686L32.8655 0.191657L35.1814 0.207629L37.2896 0.2236L39.6055 0.239572L41.7137 0.255543L44.0296 0.271514L46.1378 0.287486L48.4856 0.319429L50.5938 0.3354L52.9097 0.351372L55.0339 0.367343H55.3693C56.1519 0.383315 56.7588 1.0062 56.7588 1.77283Z" fill="url(#paint1_linear_1_1038)"/>
<path d="M56.7588 2.14019L56.7269 6.27679L56.6949 10.3495L54.7943 10.3335L52.2708 10.3176L49.955 10.3016H47.4155L45.0996 10.2856L42.5762 10.2697L40.2603 10.2537H37.7208L35.405 10.2377L32.8655 10.2217L30.5656 10.2058H28.0262L25.7103 10.1898L23.1709 10.1738L20.855 10.1579H18.3315L16.0157 10.1419L13.4762 10.1259L11.1603 10.1099H8.63685L6.76819 10.094L6.83207 1.88464L11.2721 1.90061L16.1115 1.93256L18.4273 1.94853L20.9668 1.9645H23.2827L28.122 1.99644L30.6615 2.01242H32.9773L35.5168 2.02839L37.8167 2.04436L40.3561 2.06033H42.672L45.2114 2.0763L47.5113 2.09227L50.0508 2.10824H52.3666L54.9061 2.12422L56.7588 2.14019Z" fill="url(#paint2_linear_1_1038)"/>
<path d="M62.4457 34.8841L0.81189 34.5927L0.682655 61.9198L62.3164 62.2112L62.4457 34.8841Z" fill="#F7F9FC"/>
<path d="M62.4566 34.884L0.822815 34.5927L0.799559 39.5119L62.4334 39.8032L62.4566 34.884Z" fill="#FBFCF7"/>
<path d="M24.8478 45.5803L20.8709 45.5644L20.8869 41.5715L15.4087 41.5555L15.3927 45.5324L11.4159 45.5165L11.3839 50.9787L15.3608 50.9947L15.3448 54.9875L20.823 55.0035L20.839 51.0266L24.8159 51.0426L24.8478 45.5803Z" fill="url(#paint3_linear_1_1038)"/>
<path d="M51.8715 46.906L32.1628 46.8102C31.6357 46.8102 31.2045 46.379 31.2045 45.8519V45.4047C31.2045 44.8776 31.6357 44.4464 32.1628 44.4464L51.8715 44.5422C52.3986 44.5422 52.8298 44.9735 52.8298 45.5005V45.9477C52.8298 46.4748 52.3986 46.906 51.8715 46.906Z" fill="url(#paint4_linear_1_1038)"/>
<path opacity="0.5" d="M51.8556 52.7675L32.1468 52.6716C31.6198 52.6716 31.1885 52.2404 31.1885 51.7133V51.2661C31.1885 50.7391 31.6198 50.3079 32.1468 50.3079L51.8556 50.4037C52.3826 50.4037 52.8139 50.8349 52.8139 51.362V51.8092C52.8139 52.3362 52.3826 52.7675 51.8556 52.7675Z" fill="url(#paint5_linear_1_1038)"/>
<path opacity="0.08" d="M6.76819 1.7728V2.12417L6.80013 6.27674L6.83207 10.3335V10.8286C6.83207 11.5952 7.47093 12.2181 8.23756 12.2181H8.57296L10.6972 12.2021L13.013 12.1862L15.1213 12.1702L17.4371 12.1542L19.5453 12.1383L21.8612 12.1223L23.9694 12.1063L26.2853 12.0903L28.4095 12.0744L30.7253 12.0584L32.8336 12.0424L35.1494 12.0265L37.2577 12.0105L39.5735 11.9945L41.6977 11.9785L44.0136 11.9626L46.1218 11.9466L48.4377 11.9306L50.5459 11.9147L52.8618 11.8987L54.986 11.8827H55.3214C56.088 11.8827 56.7109 11.2439 56.7109 10.4772V10.4613V10.1099C32.0031 11.18 8.1577 0.36731 8.1577 0.36731C7.39107 0.383281 6.76819 1.00617 6.76819 1.7728Z" fill="#1A6FB5"/>
</g>
<defs>
<linearGradient id="paint0_linear_1_1038" x1="0.635141" y1="11.3333" x2="57.774" y2="90.1944" gradientUnits="userSpaceOnUse">
<stop stop-color="#6CBCFC"/>
<stop offset="1" stop-color="#458DFC"/>
</linearGradient>
<linearGradient id="paint1_linear_1_1038" x1="-629.295" y1="-39.931" x2="-26.9689" y2="2.02206" gradientUnits="userSpaceOnUse">
<stop stop-color="#B0F4FF"/>
<stop offset="0.0525488" stop-color="#A9F2FF"/>
<stop offset="0.2879" stop-color="#8DE8FE"/>
<stop offset="0.5247" stop-color="#79E1FD"/>
<stop offset="0.7618" stop-color="#6DDDFC"/>
<stop offset="1" stop-color="#69DCFC"/>
</linearGradient>
<linearGradient id="paint2_linear_1_1038" x1="6.77509" y1="6.11313" x2="56.7609" y2="6.11313" gradientUnits="userSpaceOnUse">
<stop stop-color="#B0F4FF"/>
<stop offset="0.0525488" stop-color="#A9F2FF"/>
<stop offset="0.2879" stop-color="#8DE8FE"/>
<stop offset="0.5247" stop-color="#79E1FD"/>
<stop offset="0.7618" stop-color="#6DDDFC"/>
<stop offset="1" stop-color="#69DCFC"/>
</linearGradient>
<linearGradient id="paint3_linear_1_1038" x1="22.613" y1="43.0953" x2="13.2326" y2="53.9124" gradientUnits="userSpaceOnUse">
<stop stop-color="#6CBCFC"/>
<stop offset="1" stop-color="#458DFC"/>
</linearGradient>
<linearGradient id="paint4_linear_1_1038" x1="53.0199" y1="45.671" x2="29.5218" y2="45.671" gradientUnits="userSpaceOnUse">
<stop stop-color="#6CBCFC"/>
<stop offset="1" stop-color="#458DFC"/>
</linearGradient>
<linearGradient id="paint5_linear_1_1038" x1="31.1871" y1="51.5321" x2="52.8142" y2="51.5321" gradientUnits="userSpaceOnUse">
<stop stop-color="#6CBCFC"/>
<stop offset="1" stop-color="#458DFC"/>
</linearGradient>
<clipPath id="clip0_1_1038">
<rect width="61.8574" height="85" fill="white" transform="translate(0.635132)"/>
</clipPath>
</defs>
</svg>
